<svg xmlns="http://www.w3.org/2000/svg" xmlns:xlink="http://www.w3.org/1999/xlink" width="2000" zoomAndPan="magnify" viewBox="0 0 1500 374.999991" height="500" preserveAspectRatio="xMidYMid meet" version="1.0"><defs><g/><clipPath id="90331c1c16"><path d="M 0 0 L 375 0 L 375 375 L 0 375 Z M 0 0 " clip-rule="nonzero"/></clipPath><clipPath id="9a5b57ca40"><path d="M 187.5 0 C 83.945312 0 0 83.945312 0 187.5 C 0 291.054688 83.945312 375 187.5 375 C 291.054688 375 375 291.054688 375 187.5 C 375 83.945312 291.054688 0 187.5 0 " clip-rule="nonzero"/></clipPath><clipPath id="f2c665400b"><path d="M 27.019531 27.019531 L 347.980469 27.019531 L 347.980469 347.980469 L 27.019531 347.980469 Z M 27.019531 27.019531 " clip-rule="nonzero"/></clipPath><clipPath id="990a3680b4"><path d="M 187.5 27.019531 C 98.867188 27.019531 27.019531 98.867188 27.019531 187.5 C 27.019531 276.132812 98.867188 347.980469 187.5 347.980469 C 276.132812 347.980469 347.980469 276.132812 347.980469 187.5 C 347.980469 98.867188 276.132812 27.019531 187.5 27.019531 " clip-rule="nonzero"/></clipPath><clipPath id="38af9f79d1"><path d="M 218.164062 252.621094 L 251.085938 252.621094 L 251.085938 285.542969 L 218.164062 285.542969 Z M 218.164062 252.621094 " clip-rule="nonzero"/></clipPath><clipPath id="2b94569255"><path d="M 234.625 252.621094 C 225.535156 252.621094 218.164062 259.988281 218.164062 269.082031 C 218.164062 278.171875 225.535156 285.542969 234.625 285.542969 C 243.714844 285.542969 251.085938 278.171875 251.085938 269.082031 C 251.085938 259.988281 243.714844 252.621094 234.625 252.621094 " clip-rule="nonzero"/></clipPath></defs><g clip-path="url(#90331c1c16)"><g clip-path="url(#9a5b57ca40)"><path fill="#a3826c" d="M 0 0 L 375 0 L 375 375 L 0 375 Z M 0 0 " fill-opacity="1" fill-rule="nonzero"/></g></g><g clip-path="url(#f2c665400b)"><g clip-path="url(#990a3680b4)"><path fill="#ffffff" d="M 27.019531 27.019531 L 347.980469 27.019531 L 347.980469 347.980469 L 27.019531 347.980469 Z M 27.019531 27.019531 " fill-opacity="1" fill-rule="nonzero"/></g></g><g fill="#a3826c" fill-opacity="1"><g transform="translate(93.82595, 285.562416)"><g><path d="M 139.4375 -206.640625 C 143.632812 -206.640625 149.65625 -205.660156 157.5 -203.703125 L 157.5 -154.984375 C 148.820312 -157.503906 140.703125 -158.765625 133.140625 -158.765625 C 116.617188 -158.765625 103.457031 -153.863281 93.65625 -144.0625 C 83.851562 -134.257812 78.953125 -121.238281 78.953125 -105 L 78.953125 0 L 28.5625 0 L 28.5625 -201.59375 L 78.953125 -201.59375 L 78.953125 -169.6875 L 79.796875 -169.6875 C 85.398438 -181.4375 93.378906 -190.53125 103.734375 -196.96875 C 114.097656 -203.414062 126 -206.640625 139.4375 -206.640625 Z M 139.4375 -206.640625 "/></g></g></g><g clip-path="url(#38af9f79d1)"><g clip-path="url(#2b94569255)"><path fill="#a3826c" d="M 218.164062 252.621094 L 251.085938 252.621094 L 251.085938 285.542969 L 218.164062 285.542969 Z M 218.164062 252.621094 " fill-opacity="1" fill-rule="nonzero"/></g></g><path stroke-linecap="butt" transform="matrix(0.00450217, 0.749986, -0.749986, 0.00450217, 444.962533, 0.00337948)" fill="none" stroke-linejoin="miter" d="M -0.00240306 17.00242 L 500.00666 16.998713 " stroke="#a3826c" stroke-width="34" stroke-opacity="1" stroke-miterlimit="4"/><g fill="#a3826c" fill-opacity="1"><g transform="translate(491.467018, 160.562195)"><g><path d="M 59.21875 -127.4375 C 74.457031 -127.4375 86.066406 -124.285156 94.046875 -117.984375 C 102.023438 -111.691406 106.015625 -102.664062 106.015625 -90.90625 C 106.015625 -81.300781 103.34375 -73.46875 98 -67.40625 C 92.664062 -61.34375 85.5 -57.65625 76.5 -56.34375 L 110.34375 0 L 82.984375 0 L 53.453125 -54 L 36.90625 -54 L 36.90625 0 L 14.21875 0 L 14.21875 -127.4375 Z M 55.625 -73.4375 C 65.457031 -73.4375 72.351562 -74.90625 76.3125 -77.84375 C 80.28125 -80.789062 82.265625 -85.203125 82.265625 -91.078125 C 82.265625 -102.359375 73.921875 -108 57.234375 -108 L 36.90625 -108 L 36.90625 -73.4375 Z M 55.625 -73.4375 "/></g></g></g><g fill="#a3826c" fill-opacity="1"><g transform="translate(604.867019, 160.562195)"><g><path d="M 54.90625 -88.5625 C 67.863281 -88.5625 77.851562 -84.238281 84.875 -75.59375 C 91.894531 -66.957031 95.40625 -55.679688 95.40625 -41.765625 L 95.40625 -35.640625 L 29.515625 -35.640625 C 30.234375 -29.398438 32.722656 -24.421875 36.984375 -20.703125 C 41.242188 -16.984375 46.492188 -15.125 52.734375 -15.125 C 61.859375 -15.125 69.597656 -19.019531 75.953125 -26.8125 L 91.4375 -15.125 C 82.082031 -3.601562 69.90625 2.15625 54.90625 2.15625 C 41.695312 2.15625 30.5625 -2.039062 21.5 -10.4375 C 12.445312 -18.84375 7.921875 -29.765625 7.921875 -43.203125 C 7.921875 -56.640625 12.445312 -67.554688 21.5 -75.953125 C 30.5625 -84.359375 41.695312 -88.5625 54.90625 -88.5625 Z M 73.796875 -51.84375 C 73.679688 -58.675781 71.582031 -63.800781 67.5 -67.21875 C 63.414062 -70.644531 58.132812 -72.359375 51.65625 -72.359375 C 45.175781 -72.359375 40.078125 -70.46875 36.359375 -66.6875 C 32.640625 -62.90625 30.359375 -57.957031 29.515625 -51.84375 Z M 73.796875 -51.84375 "/></g></g></g><g fill="#a3826c" fill-opacity="1"><g transform="translate(708.18702, 160.562195)"><g><path d="M 101.15625 -136.078125 L 101.15625 0 L 80.640625 0 L 80.640625 -12.953125 L 80.28125 -12.953125 C 74.28125 -2.878906 64.320312 2.15625 50.40625 2.15625 C 37.5625 2.15625 27.269531 -2.101562 19.53125 -10.625 C 11.789062 -19.144531 7.921875 -30.003906 7.921875 -43.203125 C 7.921875 -55.921875 11.816406 -66.660156 19.609375 -75.421875 C 27.410156 -84.179688 37.4375 -88.5625 49.6875 -88.5625 C 62.039062 -88.5625 71.816406 -84.179688 79.015625 -75.421875 L 79.5625 -75.421875 L 79.5625 -136.078125 Z M 29.515625 -43.203125 C 29.515625 -35.523438 31.941406 -29.285156 36.796875 -24.484375 C 41.660156 -19.679688 47.695312 -17.28125 54.90625 -17.28125 C 62.457031 -17.28125 68.570312 -19.769531 73.25 -24.75 C 77.9375 -29.726562 80.28125 -35.878906 80.28125 -43.203125 C 80.28125 -50.640625 77.847656 -56.816406 72.984375 -61.734375 C 68.128906 -66.660156 62.101562 -69.125 54.90625 -69.125 C 47.820312 -69.125 41.816406 -66.691406 36.890625 -61.828125 C 31.972656 -56.972656 29.515625 -50.765625 29.515625 -43.203125 Z M 29.515625 -43.203125 "/></g></g></g><g fill="#a3826c" fill-opacity="1"><g transform="translate(821.587022, 160.562195)"><g><path d="M 54.90625 -88.5625 C 67.863281 -88.5625 77.851562 -84.238281 84.875 -75.59375 C 91.894531 -66.957031 95.40625 -55.679688 95.40625 -41.765625 L 95.40625 -35.640625 L 29.515625 -35.640625 C 30.234375 -29.398438 32.722656 -24.421875 36.984375 -20.703125 C 41.242188 -16.984375 46.492188 -15.125 52.734375 -15.125 C 61.859375 -15.125 69.597656 -19.019531 75.953125 -26.8125 L 91.4375 -15.125 C 82.082031 -3.601562 69.90625 2.15625 54.90625 2.15625 C 41.695312 2.15625 30.5625 -2.039062 21.5 -10.4375 C 12.445312 -18.84375 7.921875 -29.765625 7.921875 -43.203125 C 7.921875 -56.640625 12.445312 -67.554688 21.5 -75.953125 C 30.5625 -84.359375 41.695312 -88.5625 54.90625 -88.5625 Z M 73.796875 -51.84375 C 73.679688 -58.675781 71.582031 -63.800781 67.5 -67.21875 C 63.414062 -70.644531 58.132812 -72.359375 51.65625 -72.359375 C 45.175781 -72.359375 40.078125 -70.46875 36.359375 -66.6875 C 32.640625 -62.90625 30.359375 -57.957031 29.515625 -51.84375 Z M 73.796875 -51.84375 "/></g></g></g><g fill="#a3826c" fill-opacity="1"><g transform="translate(924.907022, 160.562195)"><g><path d="M 54.90625 -88.5625 C 67.863281 -88.5625 77.851562 -84.238281 84.875 -75.59375 C 91.894531 -66.957031 95.40625 -55.679688 95.40625 -41.765625 L 95.40625 -35.640625 L 29.515625 -35.640625 C 30.234375 -29.398438 32.722656 -24.421875 36.984375 -20.703125 C 41.242188 -16.984375 46.492188 -15.125 52.734375 -15.125 C 61.859375 -15.125 69.597656 -19.019531 75.953125 -26.8125 L 91.4375 -15.125 C 82.082031 -3.601562 69.90625 2.15625 54.90625 2.15625 C 41.695312 2.15625 30.5625 -2.039062 21.5 -10.4375 C 12.445312 -18.84375 7.921875 -29.765625 7.921875 -43.203125 C 7.921875 -56.640625 12.445312 -67.554688 21.5 -75.953125 C 30.5625 -84.359375 41.695312 -88.5625 54.90625 -88.5625 Z M 73.796875 -51.84375 C 73.679688 -58.675781 71.582031 -63.800781 67.5 -67.21875 C 63.414062 -70.644531 58.132812 -72.359375 51.65625 -72.359375 C 45.175781 -72.359375 40.078125 -70.46875 36.359375 -66.6875 C 32.640625 -62.90625 30.359375 -57.957031 29.515625 -51.84375 Z M 73.796875 -51.84375 "/></g></g></g><g fill="#a3826c" fill-opacity="1"><g transform="translate(1028.227023, 160.562195)"><g><path d="M 58.6875 -88.5625 C 72.238281 -88.5625 81.238281 -83.222656 85.6875 -72.546875 C 91.6875 -83.222656 101.164062 -88.5625 114.125 -88.5625 C 134.882812 -88.5625 145.265625 -76.019531 145.265625 -50.9375 L 145.265625 0 L 123.65625 0 L 123.65625 -49.5 C 123.65625 -62.582031 118.316406 -69.125 107.640625 -69.125 C 101.878906 -69.125 97.347656 -67.171875 94.046875 -63.265625 C 90.742188 -59.367188 89.09375 -53.878906 89.09375 -46.796875 L 89.09375 0 L 67.5 0 L 67.5 -52.015625 C 67.5 -57.421875 66.238281 -61.625 63.71875 -64.625 C 61.195312 -67.625 57.535156 -69.125 52.734375 -69.125 C 46.015625 -69.125 41.035156 -67.019531 37.796875 -62.8125 C 34.554688 -58.613281 32.9375 -53.394531 32.9375 -47.15625 L 32.9375 0 L 11.34375 0 L 11.34375 -86.40625 L 31.859375 -86.40625 L 31.859375 -72.90625 L 32.21875 -72.90625 C 37.257812 -83.34375 46.082031 -88.5625 58.6875 -88.5625 Z M 58.6875 -88.5625 "/></g></g><g transform="translate(1184.827013, 160.562195)"><g><path d="M 54.90625 -88.5625 C 67.863281 -88.5625 77.851562 -84.238281 84.875 -75.59375 C 91.894531 -66.957031 95.40625 -55.679688 95.40625 -41.765625 L 95.40625 -35.640625 L 29.515625 -35.640625 C 30.234375 -29.398438 32.722656 -24.421875 36.984375 -20.703125 C 41.242188 -16.984375 46.492188 -15.125 52.734375 -15.125 C 61.859375 -15.125 69.597656 -19.019531 75.953125 -26.8125 L 91.4375 -15.125 C 82.082031 -3.601562 69.90625 2.15625 54.90625 2.15625 C 41.695312 2.15625 30.5625 -2.039062 21.5 -10.4375 C 12.445312 -18.84375 7.921875 -29.765625 7.921875 -43.203125 C 7.921875 -56.640625 12.445312 -67.554688 21.5 -75.953125 C 30.5625 -84.359375 41.695312 -88.5625 54.90625 -88.5625 Z M 73.796875 -51.84375 C 73.679688 -58.675781 71.582031 -63.800781 67.5 -67.21875 C 63.414062 -70.644531 58.132812 -72.359375 51.65625 -72.359375 C 45.175781 -72.359375 40.078125 -70.46875 36.359375 -66.6875 C 32.640625 -62.90625 30.359375 -57.957031 29.515625 -51.84375 Z M 73.796875 -51.84375 "/></g></g></g><g fill="#a3826c" fill-opacity="1"><g transform="translate(1288.146961, 160.562195)"><g><path d="M 59.765625 -88.5625 C 61.554688 -88.5625 64.132812 -88.140625 67.5 -87.296875 L 67.5 -66.421875 C 63.78125 -67.503906 60.300781 -68.046875 57.0625 -68.046875 C 49.976562 -68.046875 44.335938 -65.941406 40.140625 -61.734375 C 35.941406 -57.535156 33.84375 -51.957031 33.84375 -45 L 33.84375 0 L 12.234375 0 L 12.234375 -86.40625 L 33.84375 -86.40625 L 33.84375 -72.71875 L 34.203125 -72.71875 C 36.597656 -77.757812 40.015625 -81.660156 44.453125 -84.421875 C 48.898438 -87.179688 54.003906 -88.5625 59.765625 -88.5625 Z M 59.765625 -88.5625 "/></g></g></g><g fill="#a3826c" fill-opacity="1"><g transform="translate(491.467018, 339.749217)"><g><path d="M 59.21875 -127.4375 C 74.457031 -127.4375 86.066406 -124.285156 94.046875 -117.984375 C 102.023438 -111.691406 106.015625 -102.664062 106.015625 -90.90625 C 106.015625 -81.300781 103.34375 -73.46875 98 -67.40625 C 92.664062 -61.34375 85.5 -57.65625 76.5 -56.34375 L 110.34375 0 L 82.984375 0 L 53.453125 -54 L 36.90625 -54 L 36.90625 0 L 14.21875 0 L 14.21875 -127.4375 Z M 55.625 -73.4375 C 65.457031 -73.4375 72.351562 -74.90625 76.3125 -77.84375 C 80.28125 -80.789062 82.265625 -85.203125 82.265625 -91.078125 C 82.265625 -102.359375 73.921875 -108 57.234375 -108 L 36.90625 -108 L 36.90625 -73.4375 Z M 55.625 -73.4375 "/></g></g></g><g fill="#a3826c" fill-opacity="1"><g transform="translate(604.867019, 339.749217)"><g><path d="M 54.90625 -88.5625 C 68.101562 -88.5625 79.226562 -84.359375 88.28125 -75.953125 C 97.34375 -67.554688 101.875 -56.640625 101.875 -43.203125 C 101.875 -29.765625 97.34375 -18.84375 88.28125 -10.4375 C 79.226562 -2.039062 68.101562 2.15625 54.90625 2.15625 C 41.695312 2.15625 30.5625 -2.039062 21.5 -10.4375 C 12.445312 -18.84375 7.921875 -29.765625 7.921875 -43.203125 C 7.921875 -56.640625 12.445312 -67.554688 21.5 -75.953125 C 30.5625 -84.359375 41.695312 -88.5625 54.90625 -88.5625 Z M 29.515625 -43.203125 C 29.515625 -35.523438 31.941406 -29.285156 36.796875 -24.484375 C 41.660156 -19.679688 47.695312 -17.28125 54.90625 -17.28125 C 62.21875 -17.28125 68.273438 -19.707031 73.078125 -24.5625 C 77.878906 -29.425781 80.28125 -35.640625 80.28125 -43.203125 C 80.28125 -50.878906 77.847656 -57.117188 72.984375 -61.921875 C 68.128906 -66.722656 62.039062 -69.125 54.71875 -69.125 C 47.632812 -69.125 41.660156 -66.660156 36.796875 -61.734375 C 31.941406 -56.816406 29.515625 -50.640625 29.515625 -43.203125 Z M 29.515625 -43.203125 "/></g></g></g><g fill="#a3826c" fill-opacity="1"><g transform="translate(714.66703, 339.749217)"><g><path d="M 41.578125 -111.421875 L 41.578125 -86.40625 L 65.34375 -86.40625 L 65.34375 -68.046875 L 41.578125 -68.046875 L 41.578125 -29.703125 C 41.578125 -20.703125 45.597656 -16.203125 53.640625 -16.203125 C 59.035156 -16.203125 62.9375 -17.101562 65.34375 -18.90625 L 65.34375 -0.71875 C 61.257812 1.195312 55.554688 2.15625 48.234375 2.15625 C 38.273438 2.15625 31.078125 -0.03125 26.640625 -4.40625 C 22.203125 -8.789062 19.984375 -16.503906 19.984375 -27.546875 L 19.984375 -68.046875 L 2.15625 -68.046875 L 2.15625 -86.40625 L 19.984375 -86.40625 L 19.984375 -111.421875 Z M 41.578125 -111.421875 "/></g></g></g><g fill="#a3826c" fill-opacity="1"><g transform="translate(784.687014, 339.749217)"><g><path d="M 41.578125 -111.421875 L 41.578125 -86.40625 L 65.34375 -86.40625 L 65.34375 -68.046875 L 41.578125 -68.046875 L 41.578125 -29.703125 C 41.578125 -20.703125 45.597656 -16.203125 53.640625 -16.203125 C 59.035156 -16.203125 62.9375 -17.101562 65.34375 -18.90625 L 65.34375 -0.71875 C 61.257812 1.195312 55.554688 2.15625 48.234375 2.15625 C 38.273438 2.15625 31.078125 -0.03125 26.640625 -4.40625 C 22.203125 -8.789062 19.984375 -16.503906 19.984375 -27.546875 L 19.984375 -68.046875 L 2.15625 -68.046875 L 2.15625 -86.40625 L 19.984375 -86.40625 L 19.984375 -111.421875 Z M 41.578125 -111.421875 "/></g></g></g><g fill="#a3826c" fill-opacity="1"><g transform="translate(854.706998, 339.749217)"><g><path d="M 54.90625 -88.5625 C 67.863281 -88.5625 77.851562 -84.238281 84.875 -75.59375 C 91.894531 -66.957031 95.40625 -55.679688 95.40625 -41.765625 L 95.40625 -35.640625 L 29.515625 -35.640625 C 30.234375 -29.398438 32.722656 -24.421875 36.984375 -20.703125 C 41.242188 -16.984375 46.492188 -15.125 52.734375 -15.125 C 61.859375 -15.125 69.597656 -19.019531 75.953125 -26.8125 L 91.4375 -15.125 C 82.082031 -3.601562 69.90625 2.15625 54.90625 2.15625 C 41.695312 2.15625 30.5625 -2.039062 21.5 -10.4375 C 12.445312 -18.84375 7.921875 -29.765625 7.921875 -43.203125 C 7.921875 -56.640625 12.445312 -67.554688 21.5 -75.953125 C 30.5625 -84.359375 41.695312 -88.5625 54.90625 -88.5625 Z M 73.796875 -51.84375 C 73.679688 -58.675781 71.582031 -63.800781 67.5 -67.21875 C 63.414062 -70.644531 58.132812 -72.359375 51.65625 -72.359375 C 45.175781 -72.359375 40.078125 -70.46875 36.359375 -66.6875 C 32.640625 -62.90625 30.359375 -57.957031 29.515625 -51.84375 Z M 73.796875 -51.84375 "/></g></g></g><g fill="#a3826c" fill-opacity="1"><g transform="translate(958.026999, 339.749217)"><g><path d="M 59.765625 -88.5625 C 61.554688 -88.5625 64.132812 -88.140625 67.5 -87.296875 L 67.5 -66.421875 C 63.78125 -67.503906 60.300781 -68.046875 57.0625 -68.046875 C 49.976562 -68.046875 44.335938 -65.941406 40.140625 -61.734375 C 35.941406 -57.535156 33.84375 -51.957031 33.84375 -45 L 33.84375 0 L 12.234375 0 L 12.234375 -86.40625 L 33.84375 -86.40625 L 33.84375 -72.71875 L 34.203125 -72.71875 C 36.597656 -77.757812 40.015625 -81.660156 44.453125 -84.421875 C 48.898438 -87.179688 54.003906 -88.5625 59.765625 -88.5625 Z M 59.765625 -88.5625 "/></g></g></g><g fill="#a3826c" fill-opacity="1"><g transform="translate(1028.046983, 339.749217)"><g><path d="M 101.15625 -136.078125 L 101.15625 0 L 80.640625 0 L 80.640625 -12.953125 L 80.28125 -12.953125 C 74.28125 -2.878906 64.320312 2.15625 50.40625 2.15625 C 37.5625 2.15625 27.269531 -2.101562 19.53125 -10.625 C 11.789062 -19.144531 7.921875 -30.003906 7.921875 -43.203125 C 7.921875 -55.921875 11.816406 -66.660156 19.609375 -75.421875 C 27.410156 -84.179688 37.4375 -88.5625 49.6875 -88.5625 C 62.039062 -88.5625 71.816406 -84.179688 79.015625 -75.421875 L 79.5625 -75.421875 L 79.5625 -136.078125 Z M 29.515625 -43.203125 C 29.515625 -35.523438 31.941406 -29.285156 36.796875 -24.484375 C 41.660156 -19.679688 47.695312 -17.28125 54.90625 -17.28125 C 62.457031 -17.28125 68.570312 -19.769531 73.25 -24.75 C 77.9375 -29.726562 80.28125 -35.878906 80.28125 -43.203125 C 80.28125 -50.640625 77.847656 -56.816406 72.984375 -61.734375 C 68.128906 -66.660156 62.101562 -69.125 54.90625 -69.125 C 47.820312 -69.125 41.816406 -66.691406 36.890625 -61.828125 C 31.972656 -56.972656 29.515625 -50.765625 29.515625 -43.203125 Z M 29.515625 -43.203125 "/></g></g></g><g fill="#a3826c" fill-opacity="1"><g transform="translate(1141.446985, 339.749217)"><g><path d="M 48.78125 -88.5625 C 61.132812 -88.5625 70.375 -85.585938 76.5 -79.640625 C 82.625 -73.703125 85.6875 -64.375 85.6875 -51.65625 L 85.6875 0 L 66.234375 0 L 66.234375 -11.875 L 65.703125 -11.875 C 59.816406 -2.519531 50.578125 2.15625 37.984375 2.15625 C 28.617188 2.15625 21.023438 -0.269531 15.203125 -5.125 C 9.390625 -9.988281 6.484375 -16.203125 6.484375 -23.765625 C 6.484375 -33.835938 10.679688 -41.363281 19.078125 -46.34375 C 27.484375 -51.320312 40.984375 -53.8125 59.578125 -53.8125 L 66.234375 -53.8125 L 66.234375 -56.34375 C 66.234375 -61.382812 64.429688 -65.3125 60.828125 -68.125 C 57.234375 -70.945312 52.4375 -72.359375 46.4375 -72.359375 C 37.5625 -72.359375 29.882812 -69.359375 23.40625 -63.359375 L 12.0625 -74.703125 C 21.0625 -83.941406 33.300781 -88.5625 48.78125 -88.5625 Z M 28.078125 -25.375 C 28.078125 -21.65625 29.609375 -18.835938 32.671875 -16.921875 C 35.734375 -15.003906 39.300781 -14.046875 43.375 -14.046875 C 50.820312 -14.046875 56.285156 -15.875 59.765625 -19.53125 C 63.242188 -23.1875 64.984375 -27.773438 64.984375 -33.296875 L 64.984375 -38.703125 L 58.6875 -38.703125 C 38.28125 -38.703125 28.078125 -34.257812 28.078125 -25.375 Z M 28.078125 -25.375 "/></g></g></g><g fill="#a3826c" fill-opacity="1"><g transform="translate(1238.106982, 339.749217)"><g><path d="M 58.6875 -88.5625 C 72.238281 -88.5625 81.238281 -83.222656 85.6875 -72.546875 C 91.6875 -83.222656 101.164062 -88.5625 114.125 -88.5625 C 134.882812 -88.5625 145.265625 -76.019531 145.265625 -50.9375 L 145.265625 0 L 123.65625 0 L 123.65625 -49.5 C 123.65625 -62.582031 118.316406 -69.125 107.640625 -69.125 C 101.878906 -69.125 97.347656 -67.171875 94.046875 -63.265625 C 90.742188 -59.367188 89.09375 -53.878906 89.09375 -46.796875 L 89.09375 0 L 67.5 0 L 67.5 -52.015625 C 67.5 -57.421875 66.238281 -61.625 63.71875 -64.625 C 61.195312 -67.625 57.535156 -69.125 52.734375 -69.125 C 46.015625 -69.125 41.035156 -67.019531 37.796875 -62.8125 C 34.554688 -58.613281 32.9375 -53.394531 32.9375 -47.15625 L 32.9375 0 L 11.34375 0 L 11.34375 -86.40625 L 31.859375 -86.40625 L 31.859375 -72.90625 L 32.21875 -72.90625 C 37.257812 -83.34375 46.082031 -88.5625 58.6875 -88.5625 Z M 58.6875 -88.5625 "/></g></g></g></svg>