<svg xmlns="http://www.w3.org/2000/svg" xmlns:xlink="http://www.w3.org/1999/xlink" width="500" zoomAndPan="magnify" viewBox="0 0 375 374.999991" height="500" preserveAspectRatio="xMidYMid meet" version="1.0"><defs><g/><clipPath id="dcae050a7c"><path d="M 187.5 0 C 83.945312 0 0 83.945312 0 187.5 C 0 291.054688 83.945312 375 187.5 375 C 291.054688 375 375 291.054688 375 187.5 C 375 83.945312 291.054688 0 187.5 0 " clip-rule="nonzero"/></clipPath><clipPath id="b0db615b97"><path d="M 27.019531 27.019531 L 347.980469 27.019531 L 347.980469 347.980469 L 27.019531 347.980469 Z M 27.019531 27.019531 " clip-rule="nonzero"/></clipPath><clipPath id="ae5aaebb41"><path d="M 187.5 27.019531 C 98.867188 27.019531 27.019531 98.867188 27.019531 187.5 C 27.019531 276.132812 98.867188 347.980469 187.5 347.980469 C 276.132812 347.980469 347.980469 276.132812 347.980469 187.5 C 347.980469 98.867188 276.132812 27.019531 187.5 27.019531 " clip-rule="nonzero"/></clipPath><clipPath id="038faf352d"><path d="M 218.164062 252.621094 L 251.085938 252.621094 L 251.085938 285.542969 L 218.164062 285.542969 Z M 218.164062 252.621094 " clip-rule="nonzero"/></clipPath><clipPath id="c903a10559"><path d="M 234.625 252.621094 C 225.535156 252.621094 218.164062 259.988281 218.164062 269.082031 C 218.164062 278.171875 225.535156 285.542969 234.625 285.542969 C 243.714844 285.542969 251.085938 278.171875 251.085938 269.082031 C 251.085938 259.988281 243.714844 252.621094 234.625 252.621094 " clip-rule="nonzero"/></clipPath></defs><g clip-path="url(#dcae050a7c)"><rect x="-37.5" width="450" fill="#a3826c" y="-37.499999" height="449.999989" fill-opacity="1"/></g><g clip-path="url(#b0db615b97)"><g clip-path="url(#ae5aaebb41)"><path fill="#ffffff" d="M 27.019531 27.019531 L 347.980469 27.019531 L 347.980469 347.980469 L 27.019531 347.980469 Z M 27.019531 27.019531 " fill-opacity="1" fill-rule="nonzero"/></g></g><g fill="#a3826c" fill-opacity="1"><g transform="translate(93.825936, 285.562416)"><g><path d="M 139.4375 -206.640625 C 143.632812 -206.640625 149.65625 -205.660156 157.5 -203.703125 L 157.5 -154.984375 C 148.820312 -157.503906 140.703125 -158.765625 133.140625 -158.765625 C 116.617188 -158.765625 103.457031 -153.863281 93.65625 -144.0625 C 83.851562 -134.257812 78.953125 -121.238281 78.953125 -105 L 78.953125 0 L 28.5625 0 L 28.5625 -201.59375 L 78.953125 -201.59375 L 78.953125 -169.6875 L 79.796875 -169.6875 C 85.398438 -181.4375 93.378906 -190.53125 103.734375 -196.96875 C 114.097656 -203.414062 126 -206.640625 139.4375 -206.640625 Z M 139.4375 -206.640625 "/></g></g></g><g clip-path="url(#038faf352d)"><g clip-path="url(#c903a10559)"><path fill="#a3826c" d="M 218.164062 252.621094 L 251.085938 252.621094 L 251.085938 285.542969 L 218.164062 285.542969 Z M 218.164062 252.621094 " fill-opacity="1" fill-rule="nonzero"/></g></g></svg>